STARTFONT 2.1
FONT big5.8a00.16
SIZE 16 72 72
FONTBOUNDINGBOX 16 16 0 -2
STARTPROPERTIES 4
FONT_DESCENT 2
FONT_ASCENT 14
DEFAULT_CHAR 0
COPYRIGHT "Copyright (c) 1992 AT&T - All rights reserved."
ENDPROPERTIES
CHARS 298
STARTCHAR ch-0
ENCODING 0
SWIDTH 1000 0
DWIDTH 16 0
BBX 16 16 0 -2
BITMAP
0100
0082
7fff
0000
0ff8
0000
0ff8
0000
0ff8
0808
0808
0808
0ff8
0808
0000
0000
ENDCHAR
STARTCHAR ch-2
ENCODING 2
SWIDTH 1000 0
DWIDTH 16 0
BBX 16 16 0 -2
BITMAP
1000
0802
00ff
7f08
0008
3e08
0008
3e08
0008
7f08
4108
4108
7f28
4110
0000
0000
ENDCHAR
STARTCHAR ch-3
ENCODING 3
SWIDTH 1000 0
DWIDTH 16 0
BBX 16 16 0 -2
BITMAP
1000
0810
0010
7f10
0010
3e18
0014
3e12
0010
7f10
4110
4110
7f10
4110
0000
0000
ENDCHAR
STARTCHAR ch-4
ENCODING 4
SWIDTH 1000 0
DWIDTH 16 0
BBX 16 16 0 -2
BITMAP
1020
11fc
1000
7cf8
1400
14f8
1400
14f8
1488
1488
14f9
2489
4401
03ff
0000
0000
ENDCHAR
STARTCHAR ch-7
ENCODING 7
SWIDTH 1000 0
DWIDTH 16 0
BBX 16 16 0 -2
BITMAP
1002
1fff
2102
5ff2
0002
0fe2
0fe2
0002
0fe2
0822
0822
0fe2
0824
0018
0000
0000
ENDCHAR
STARTCHAR ch-8
ENCODING 8
SWIDTH 1000 0
DWIDTH 16 0
BBX 16 16 0 -2
BITMAP
1000
0808
0008
7f08
000a
3eff
0008
3e08
0008
7f08
4108
4108
7f08
4108
0000
0000
ENDCHAR
STARTCHAR ch-10
ENCODING 10
SWIDTH 1000 0
DWIDTH 16 0
BBX 16 16 0 -2
BITMAP
1000
08fc
7e24
0024
3c24
0024
3cfc
0024
3c24
2424
2444
2485
3d05
2407
0000
0000
ENDCHAR
STARTCHAR ch-12
ENCODING 12
SWIDTH 1000 0
DWIDTH 16 0
BBX 16 16 0 -2
BITMAP
1000
0802
7f7f
0008
3e08
0008
3e08
0008
3e08
2208
2208
220a
3eff
2200
0000
0000
ENDCHAR
STARTCHAR ch-14
ENCODING 14
SWIDTH 1000 0
DWIDTH 16 0
BBX 16 16 0 -2
BITMAP
1002
0802
7f02
007f
3e02
0002
3e42
0022
3e12
2202
2202
2212
3e0a
2204
0000
0000
ENDCHAR
STARTCHAR ch-15
ENCODING 15
SWIDTH 1000 0
DWIDTH 16 0
BBX 16 16 0 -2
BITMAP
1000
087e
7f08
0008
3e08
00ff
3e08
0008
3e08
2208
2208
2208
3e28
2210
0000
0000
ENDCHAR
STARTCHAR ch-16
ENCODING 16
SWIDTH 1000 0
DWIDTH 16 0
BBX 16 16 0 -2
BITMAP
1000
087e
7f08
0008
3e08
0008
3eff
0008
3e08
2208
2208
2208
3e08
2208
0000
0000
ENDCHAR
STARTCHAR ch-17
ENCODING 17
SWIDTH 1000 0
DWIDTH 16 0
BBX 16 16 0 -2
BITMAP
1008
0848
7f48
0049
3eff
0049
3e49
004a
3e48
2240
2241
2241
3e7f
2200
0000
0000
ENDCHAR
STARTCHAR ch-18
ENCODING 18
SWIDTH 1000 0
DWIDTH 16 0
BBX 16 16 0 -2
BITMAP
1000
0800
7f7f
0011
3e11
0051
3e31
0011
7f19
4111
4111
4121
7f42
410c
0000
0000
ENDCHAR
STARTCHAR ch-19
ENCODING 19
SWIDTH 1000 0
DWIDTH 16 0
BBX 16 16 0 -2
BITMAP
1000
0801
7f49
0049
3e49
0049
3e49
0049
3e49
2249
2249
2289
3e01
2201
0000
0000
ENDCHAR
STARTCHAR ch-21
ENCODING 21
SWIDTH 1000 0
DWIDTH 16 0
BBX 16 16 0 -2
BITMAP
1008
0808
7f08
0008
3e08
0049
3e49
0049
3e49
2249
2249
2249
3e7f
2241
0000
0000
ENDCHAR
STARTCHAR ch-22
ENCODING 22
SWIDTH 1000 0
DWIDTH 16 0
BBX 16 16 0 -2
BITMAP
1010
0810
7f20
007f
3e80
003e
3e02
0004
3e08
2210
2220
2241
3e81
227f
0000
0000
ENDCHAR
STARTCHAR ch-23
ENCODING 23
SWIDTH 1000 0
DWIDTH 16 0
BBX 16 16 0 -2
BITMAP
1000
0806
7f78
0010
3e10
0012
3eff
0010
3e10
2210
2210
2211
3e11
220f
0000
0000
ENDCHAR
STARTCHAR ch-24
ENCODING 24
SWIDTH 1000 0
DWIDTH 16 0
BBX 16 16 0 -2
BITMAP
1000
087f
7f01
0001
3e01
007f
3e41
0040
3e40
2240
2240
2241
3e41
223f
0000
0000
ENDCHAR
STARTCHAR ch-27
ENCODING 27
SWIDTH 1000 0
DWIDTH 16 0
BBX 16 16 0 -2
BITMAP
2000
10a0
7ca0
0120
7a20
0120
793e
0120
7920
4920
4920
4921
7921
493f
0000
0000
ENDCHAR
STARTCHAR ch-29
ENCODING 29
SWIDTH 1000 0
DWIDTH 16 0
BBX 16 16 0 -2
BITMAP
1002
08ff
7e84
0084
3c84
0084
3dff
0014
3c24
2444
2484
2524
3c14
2408
0000
0000
ENDCHAR
STARTCHAR ch-30
ENCODING 30
SWIDTH 1000 0
DWIDTH 16 0
BBX 16 16 0 -2
BITMAP
0801
083e
7f08
0008
0008
3e08
007f
3e08
0008
7f08
4108
4114
7f22
4141
0000
0000
ENDCHAR
STARTCHAR ch-31
ENCODING 31
SWIDTH 1000 0
DWIDTH 16 0
BBX 16 16 0 -2
BITMAP
1000
0818
7f24
0042
3e81
0000
3e08
0008
3e08
2210
2222
2242
3eff
2201
0000
0000
ENDCHAR
STARTCHAR ch-34
ENCODING 34
SWIDTH 1000 0
DWIDTH 16 0
BBX 16 16 0 -2
BITMAP
1001
08fe
7e40
0040
3e42
007f
3e44
0044
3e44
2244
2244
2244
3e84
2204
0000
0000
ENDCHAR
STARTCHAR ch-35
ENCODING 35
SWIDTH 1000 0
DWIDTH 16 0
BBX 16 16 0 -2
BITMAP
1010
0810
7efe
0012
3c12
0012
3dff
0010
3c10
2410
2428
2444
3c82
2501
0000
0000
ENDCHAR
STARTCHAR ch-37
ENCODING 37
SWIDTH 1000 0
DWIDTH 16 0
BBX 16 16 0 -2
BITMAP
1030
0810
7e91
00ff
3c91
0091
3ca9
00c5
3c81
2481
2481
2481
3c85
2482
0000
0000
ENDCHAR
STARTCHAR ch-39
ENCODING 39
SWIDTH 1000 0
DWIDTH 16 0
BBX 16 16 0 -2
BITMAP
2020
1024
0022
7eff
0020
3c20
0028
3c28
0028
7e28
4229
4229
7e49
428f
0000
0000
ENDCHAR
STARTCHAR ch-42
ENCODING 42
SWIDTH 1000 0
DWIDTH 16 0
BBX 16 16 0 -2
BITMAP
1010
0a08
7f7f
0020
3e21
003f
3e21
0021
3e21
2221
2221
2241
3e8a
2204
0000
0000
ENDCHAR
STARTCHAR ch-44
ENCODING 44
SWIDTH 1000 0
DWIDTH 16 0
BBX 16 16 0 -2
BITMAP
1010
0810
0010
7e54
0052
3c91
0110
3c12
0012
7e04
4208
4210
7e20
42c0
0000
0000
ENDCHAR
STARTCHAR ch-45
ENCODING 45
SWIDTH 1000 0
DWIDTH 16 0
BBX 16 16 0 -2
BITMAP
1000
087c
7e44
0044
3c45
0187
3c00
00fe
3c44
2444
2428
2410
3c6c
2583
0000
0000
ENDCHAR
STARTCHAR ch-48
ENCODING 48
SWIDTH 1000 0
DWIDTH 16 0
BBX 16 16 0 -2
BITMAP
1008
0808
007f
7f08
0049
3e49
0049
3e49
007f
7f08
4108
4109
7f09
410f
0000
0000
ENDCHAR
STARTCHAR ch-49
ENCODING 49
SWIDTH 1000 0
DWIDTH 16 0
BBX 16 16 0 -2
BITMAP
1020
0820
7f3e
0048
3e88
0008
3eff
0008
3e08
2208
2208
2208
3e08
2208
0000
0000
ENDCHAR
STARTCHAR ch-52
ENCODING 52
SWIDTH 1000 0
DWIDTH 16 0
BBX 16 16 0 -2
BITMAP
0801
0802
007c
7f20
0020
3e3f
0024
3e24
0026
3e25
2224
2224
3e44
2204
0000
0000
ENDCHAR
STARTCHAR ch-54
ENCODING 54
SWIDTH 1000 0
DWIDTH 16 0
BBX 16 16 0 -2
BITMAP
0800
08ff
0002
7f02
0002
3e7a
004a
3e4a
004a
3e7a
2202
2202
3e0a
2204
0000
0000
ENDCHAR
STARTCHAR ch-57
ENCODING 57
SWIDTH 1000 0
DWIDTH 16 0
BBX 16 16 0 -2
BITMAP
0812
0811
7eff
0010
3c10
0054
3c54
0054
3c54
2454
2494
2517
2410
3c10
0000
0000
ENDCHAR
STARTCHAR ch-58
ENCODING 58
SWIDTH 1000 0
DWIDTH 16 0
BBX 16 16 0 -2
BITMAP
2010
1028
0044
7d83
0000
7c18
0060
7c04
0018
7c60
4402
4404
7c18
44e0
0000
0000
ENDCHAR
STARTCHAR ch-59
ENCODING 59
SWIDTH 1000 0
DWIDTH 16 0
BBX 16 16 0 -2
BITMAP
0810
0810
7f00
00ff
3e10
0010
3e10
00fe
3e10
2210
2210
2210
3fff
2200
0000
0000
ENDCHAR
STARTCHAR ch-60
ENCODING 60
SWIDTH 1000 0
DWIDTH 16 0
BBX 16 16 0 -2
BITMAP
1000
08ff
0008
7f08
0008
3e08
0008
3e4f
0048
3e48
2248
2248
2248
3eff
0000
0000
ENDCHAR
STARTCHAR ch-62
ENCODING 62
SWIDTH 1000 0
DWIDTH 16 0
BBX 16 16 0 -2
BITMAP
0820
2820
2e3c
2821
7ebf
0080
3ffe
0ff8
0000
0ff8
0000
1ffc
1004
1ffc
0000
0000
ENDCHAR
STARTCHAR ch-63
ENCODING 63
SWIDTH 1000 0
DWIDTH 16 0
BBX 16 16 0 -2
BITMAP
1048
0848
7e48
0048
3c48
007f
3c48
0048
3d48
2548
2548
2559
3d69
25cf
0000
0000
ENDCHAR
STARTCHAR ch-64
ENCODING 64
SWIDTH 1000 0
DWIDTH 16 0
BBX 16 16 0 -2
BITMAP
0810
0810
7f10
001f
3e10
0010
3e10
007f
3e41
2241
2241
2241
3e7f
2241
0000
0000
ENDCHAR
STARTCHAR ch-65
ENCODING 65
SWIDTH 1000 0
DWIDTH 16 0
BBX 16 16 0 -2
BITMAP
0808
0808
0008
7f08
007f
3e08
0008
3e08
007f
3e41
2241
2241
3e7f
2241
0000
0000
ENDCHAR
STARTCHAR ch-68
ENCODING 68
SWIDTH 1000 0
DWIDTH 16 0
BBX 16 16 0 -2
BITMAP
1010
0890
0090
7efe
0090
3d10
0010
3dff
0010
3c10
2428
2444
2482
3d01
0000
0000
ENDCHAR
STARTCHAR ch-69
ENCODING 69
SWIDTH 1000 0
DWIDTH 16 0
BBX 16 16 0 -2
BITMAP
1010
0828
7e44
0082
3d39
0000
3c00
00fe
3c02
2404
2448
2430
3c10
2408
0000
0000
ENDCHAR
STARTCHAR ch-70
ENCODING 70
SWIDTH 1000 0
DWIDTH 16 0
BBX 16 16 0 -2
BITMAP
0800
08ff
0044
7f44
0044
3e7f
0044
3e44
0044
3e44
2254
2265
3e43
22bd
0000
0000
ENDCHAR
STARTCHAR ch-72
ENCODING 72
SWIDTH 1000 0
DWIDTH 16 0
BBX 16 16 0 -2
BITMAP
0002
3fff
2222
3ffe
0080
7fff
0000
0ff8
0000
0ff8
0000
0ff8
0808
0ff8
0000
0000
ENDCHAR
STARTCHAR ch-74
ENCODING 74
SWIDTH 1000 0
DWIDTH 16 0
BBX 16 16 0 -2
BITMAP
1008
0808
0049
7f49
002a
3e08
007f
3e08
0008
3e7f
2208
2208
3e08
2208
0000
0000
ENDCHAR
STARTCHAR ch-76
ENCODING 76
SWIDTH 1000 0
DWIDTH 16 0
BBX 16 16 0 -2
BITMAP
0842
0842
7f42
00ff
3e42
0042
3e42
007e
3e42
2242
2242
2242
3e7e
2242
0000
0000
ENDCHAR
STARTCHAR ch-77
ENCODING 77
SWIDTH 1000 0
DWIDTH 16 0
BBX 16 16 0 -2
BITMAP
1094
0894
7e94
0094
3dff
0094
3c94
0094
3c94
2494
249c
2480
3c80
247f
0000
0000
ENDCHAR
STARTCHAR ch-78
ENCODING 78
SWIDTH 1000 0
DWIDTH 16 0
BBX 16 16 0 -2
BITMAP
0800
087f
7f40
0040
3e40
007f
3e41
0041
3e41
227f
2240
2240
3e40
227f
0000
0000
ENDCHAR
STARTCHAR ch-79
ENCODING 79
SWIDTH 1000 0
DWIDTH 16 0
BBX 16 16 0 -2
BITMAP
2008
1048
0048
7c5f
0089
3929
01e9
3849
0089
7d09
4529
45e9
7c21
440e
0000
0000
ENDCHAR
STARTCHAR ch-80
ENCODING 80
SWIDTH 1000 0
DWIDTH 16 0
BBX 16 16 0 -2
BITMAP
0840
0840
0040
7f7f
0050
3e90
001f
3e10
0010
3e1f
2210
2210
3e10
2210
0000
0000
ENDCHAR
STARTCHAR ch-81
ENCODING 81
SWIDTH 1000 0
DWIDTH 16 0
BBX 16 16 0 -2
BITMAP
1010
0810
7eff
0081
3c81
0020
3c22
0024
3c38
2420
2420
2421
3c21
243f
0000
0000
ENDCHAR
STARTCHAR ch-82
ENCODING 82
SWIDTH 1000 0
DWIDTH 16 0
BBX 16 16 0 -2
BITMAP
0800
0808
7f08
0010
3e21
007f
3e01
0000
3e7f
2241
2241
2241
3e7f
2241
0000
0000
ENDCHAR
STARTCHAR ch-84
ENCODING 84
SWIDTH 1000 0
DWIDTH 16 0
BBX 16 16 0 -2
BITMAP
087f
0811
0011
7f11
0011
3e21
004e
3e00
007f
3e41
2241
2241
3e7f
2241
0000
0000
ENDCHAR
STARTCHAR ch-85
ENCODING 85
SWIDTH 1000 0
DWIDTH 16 0
BBX 16 16 0 -2
BITMAP
0800
08fe
0010
7f10
0010
3e92
0054
3e38
01ff
3e10
2210
2210
3e10
2210
0000
0000
ENDCHAR
STARTCHAR ch-86
ENCODING 86
SWIDTH 1000 0
DWIDTH 16 0
BBX 16 16 0 -2
BITMAP
2008
1008
00ff
7c89
0088
7c88
00be
7ca2
00a2
7ca2
4494
4488
7c94
4523
0000
0000
ENDCHAR
STARTCHAR ch-87
ENCODING 87
SWIDTH 1000 0
DWIDTH 16 0
BBX 16 16 0 -2
BITMAP
11ff
1101
7d01
0101
397d
0145
3945
0145
7d7d
4545
4501
4501
7d05
4502
0000
0000
ENDCHAR
STARTCHAR ch-88
ENCODING 88
SWIDTH 1000 0
DWIDTH 16 0
BBX 16 16 0 -2
BITMAP
1008
0808
0049
7f49
0049
3e49
007f
3e08
0008
3e49
2249
2249
3e49
227f
0000
0000
ENDCHAR
STARTCHAR ch-89
ENCODING 89
SWIDTH 1000 0
DWIDTH 16 0
BBX 16 16 0 -2
BITMAP
1012
0811
7eff
0010
3c20
0042
3c82
0122
3c24
2418
2418
2424
3c42
2481
0000
0000
ENDCHAR
STARTCHAR ch-91
ENCODING 91
SWIDTH 1000 0
DWIDTH 16 0
BBX 16 16 0 -2
BITMAP
0802
087f
0042
7f42
0042
3e7e
0042
3e42
0042
3e7e
2242
2242
2242
3eff
0000
0000
ENDCHAR
STARTCHAR ch-94
ENCODING 94
SWIDTH 1000 0
DWIDTH 16 0
BBX 16 16 0 -2
BITMAP
1000
08ff
0001
7f01
007d
3e01
0001
3e7d
0045
3e45
227d
2201
3e02
220c
0000
0000
ENDCHAR
STARTCHAR ch-96
ENCODING 96
SWIDTH 1000 0
DWIDTH 16 0
BBX 16 16 0 -2
BITMAP
0810
0808
0000
7f70
0010
3e12
01d4
3e58
0050
3e98
2314
2213
3e30
2210
0000
0000
ENDCHAR
STARTCHAR ch-97
ENCODING 97
SWIDTH 1000 0
DWIDTH 16 0
BBX 16 16 0 -2
BITMAP
11ef
0821
7e29
00a9
3c65
0021
3c21
0063
3dad
2421
2421
2421
3c21
24c6
0000
0000
ENDCHAR
STARTCHAR ch-98
ENCODING 98
SWIDTH 1000 0
DWIDTH 16 0
BBX 16 16 0 -2
BITMAP
1040
0840
7e7f
0081
3d01
00f9
3c89
0089
3cf9
2489
2489
24f9
3c02
240c
0000
0000
ENDCHAR
STARTCHAR ch-99
ENCODING 99
SWIDTH 1000 0
DWIDTH 16 0
BBX 16 16 0 -2
BITMAP
2080
1082
7cfc
0080
7c81
007f
7c00
00ff
7c81
4481
44ff
4481
7c81
44ff
0000
0000
ENDCHAR
STARTCHAR ch-102
ENCODING 102
SWIDTH 1000 0
DWIDTH 16 0
BBX 16 16 0 -2
BITMAP
100a
1009
7dff
0008
7c08
01f8
7c48
0048
7c48
4448
4448
45f5
7c03
4401
0000
0000
ENDCHAR
STARTCHAR ch-104
ENCODING 104
SWIDTH 1000 0
DWIDTH 16 0
BBX 16 16 0 -2
BITMAP
1010
0808
7eff
0044
3c44
0082
3d45
0044
3c44
2428
2410
2428
3c44
2583
0000
0000
ENDCHAR
STARTCHAR ch-105
ENCODING 105
SWIDTH 1000 0
DWIDTH 16 0
BBX 16 16 0 -2
BITMAP
1010
10fe
7c10
0010
7dff
0004
7c04
01ff
7c04
4484
4444
4404
7c14
4408
0000
0000
ENDCHAR
STARTCHAR ch-107
ENCODING 107
SWIDTH 1000 0
DWIDTH 16 0
BBX 16 16 0 -2
BITMAP
1010
1010
7dff
0101
7d01
00fe
7c20
0020
7dff
4420
4420
4421
7c21
441f
0000
0000
ENDCHAR
STARTCHAR ch-108
ENCODING 108
SWIDTH 1000 0
DWIDTH 16 0
BBX 16 16 0 -2
BITMAP
1001
08fe
7e80
0080
3cff
0080
3c80
00bf
3ca1
24a1
24a1
24a1
3d3f
2621
0000
0000
ENDCHAR
STARTCHAR ch-109
ENCODING 109
SWIDTH 1000 0
DWIDTH 16 0
BBX 16 16 0 -2
BITMAP
1020
083c
7e44
0008
3cff
0080
3cfe
00a2
3caa
24a4
24a0
24a1
3ca1
251f
0000
0000
ENDCHAR
STARTCHAR ch-110
ENCODING 110
SWIDTH 1000 0
DWIDTH 16 0
BBX 16 16 0 -2
BITMAP
1010
0828
7e44
0082
3d7d
0010
3c10
0010
3c7c
2410
2410
2410
3c10
24fe
0000
0000
ENDCHAR
STARTCHAR ch-112
ENCODING 112
SWIDTH 1000 0
DWIDTH 16 0
BBX 16 16 0 -2
BITMAP
1010
1010
7dff
0010
7c10
00fe
7c00
0000
7cfe
4482
4482
4482
7cfe
4482
0000
0000
ENDCHAR
STARTCHAR ch-113
ENCODING 113
SWIDTH 1000 0
DWIDTH 16 0
BBX 16 16 0 -2
BITMAP
1001
09fe
7e10
0010
3dff
0010
3c10
00fe
3c82
2482
2482
2482
3cfe
2482
0000
0000
ENDCHAR
STARTCHAR ch-114
ENCODING 114
SWIDTH 1000 0
DWIDTH 16 0
BBX 16 16 0 -2
BITMAP
1010
1010
7dff
0020
7c40
0084
7c48
0032
7c24
4448
4498
4424
7c42
4581
0000
0000
ENDCHAR
STARTCHAR ch-115
ENCODING 115
SWIDTH 1000 0
DWIDTH 16 0
BBX 16 16 0 -2
BITMAP
1044
1028
7dff
0010
7c10
00fe
7c10
0010
7dff
4410
4410
4410
7c10
4410
0000
0000
ENDCHAR
STARTCHAR ch-116
ENCODING 116
SWIDTH 1000 0
DWIDTH 16 0
BBX 16 16 0 -2
BITMAP
1020
1020
7dff
0020
7c7e
00c2
7d42
007e
7c42
447e
4442
4442
7c42
4486
0000
0000
ENDCHAR
STARTCHAR ch-117
ENCODING 117
SWIDTH 1000 0
DWIDTH 16 0
BBX 16 16 0 -2
BITMAP
1010
1090
7cfe
0090
7d10
0010
7dff
0048
7c48
4448
4448
4449
7c89
450f
0000
0000
ENDCHAR
STARTCHAR ch-118
ENCODING 118
SWIDTH 1000 0
DWIDTH 16 0
BBX 16 16 0 -2
BITMAP
1041
0849
7e49
0049
3d6d
00db
3c49
0049
3c49
2449
2449
2449
3c49
2489
0000
0000
ENDCHAR
STARTCHAR ch-119
ENCODING 119
SWIDTH 1000 0
DWIDTH 16 0
BBX 16 16 0 -2
BITMAP
21ff
1101
7d01
017d
7d01
0101
7d7d
0145
7d45
457d
4545
4501
7d05
4502
0000
0000
ENDCHAR
STARTCHAR ch-121
ENCODING 121
SWIDTH 1000 0
DWIDTH 16 0
BBX 16 16 0 -2
BITMAP
0800
0ff8
1020
3fff
5288
1444
1fff
1000
13fc
13fc
2000
23fc
4204
03fc
0000
0000
ENDCHAR
STARTCHAR ch-122
ENCODING 122
SWIDTH 1000 0
DWIDTH 16 0
BBX 16 16 0 -2
BITMAP
1020
103f
7c42
00c4
7d28
0010
7c20
01c0
7c7f
4441
4441
4441
7c7f
4441
0000
0000
ENDCHAR
STARTCHAR ch-123
ENCODING 123
SWIDTH 1000 0
DWIDTH 16 0
BBX 16 16 0 -2
BITMAP
1040
087e
7e82
0144
3c28
0010
3c6c
0183
3cfe
2482
2482
2482
3cfe
2482
0000
0000
ENDCHAR
STARTCHAR ch-124
ENCODING 124
SWIDTH 1000 0
DWIDTH 16 0
BBX 16 16 0 -2
BITMAP
1080
13ff
7c80
0088
7caa
00aa
7c88
0088
7c88
4494
44a2
44a2
7d41
4541
0000
0000
ENDCHAR
STARTCHAR ch-127
ENCODING 127
SWIDTH 1000 0
DWIDTH 16 0
BBX 16 16 0 -2
BITMAP
0808
0808
7f3e
0008
3e08
0008
3e7f
0008
3e08
223e
2208
2208
3e08
227f
0000
0000
ENDCHAR
STARTCHAR ch-129
ENCODING 129
SWIDTH 1000 0
DWIDTH 16 0
BBX 16 16 0 -2
BITMAP
1044
1044
7c44
00fe
7c44
0044
7c44
01ff
7c44
4444
4444
4444
7c84
4504
0000
0000
ENDCHAR
STARTCHAR ch-130
ENCODING 130
SWIDTH 1000 0
DWIDTH 16 0
BBX 16 16 0 -2
BITMAP
1048
1048
7d4a
014a
7ccc
0048
7c48
00cc
7d4a
4448
4448
4449
7c89
450f
0000
0000
ENDCHAR
STARTCHAR ch-131
ENCODING 131
SWIDTH 1000 0
DWIDTH 16 0
BBX 16 16 0 -2
BITMAP
2040
107e
0044
7ca8
0110
7c20
00c8
7c1f
0021
7c52
4414
4408
7c10
44e0
0000
0000
ENDCHAR
STARTCHAR ch-132
ENCODING 132
SWIDTH 1000 0
DWIDTH 16 0
BBX 16 16 0 -2
BITMAP
0808
0809
7f7e
0008
3e7f
0008
3e7f
0008
3e1c
222a
2249
2208
3e08
2208
0000
0000
ENDCHAR
STARTCHAR ch-133
ENCODING 133
SWIDTH 1000 0
DWIDTH 16 0
BBX 16 16 0 -2
BITMAP
1090
0890
7efe
0090
3d10
0010
3dff
0010
3c10
2438
2454
2492
3d11
2410
0000
0000
ENDCHAR
STARTCHAR ch-134
ENCODING 134
SWIDTH 1000 0
DWIDTH 16 0
BBX 16 16 0 -2
BITMAP
10ff
0880
00be
7e88
0088
3c88
0088
3cbe
0088
3c88
2488
24be
3c80
24ff
0000
0000
ENDCHAR
STARTCHAR ch-135
ENCODING 135
SWIDTH 1000 0
DWIDTH 16 0
BBX 16 16 0 -2
BITMAP
1010
11ff
7c10
0028
7c44
00ba
7d01
00fe
7c40
447e
4402
4402
7c12
440c
0000
0000
ENDCHAR
STARTCHAR ch-139
ENCODING 139
SWIDTH 1000 0
DWIDTH 16 0
BBX 16 16 0 -2
BITMAP
10fc
1004
7c04
00fc
3880
0082
38fe
0000
7c20
4552
454a
4541
7c44
447c
0000
0000
ENDCHAR
STARTCHAR ch-140
ENCODING 140
SWIDTH 1000 0
DWIDTH 16 0
BBX 16 16 0 -2
BITMAP
2010
1010
7dff
0010
7c10
00fe
7c00
0020
7c12
4549
4540
4542
7c41
443f
0000
0000
ENDCHAR
STARTCHAR ch-141
ENCODING 141
SWIDTH 1000 0
DWIDTH 16 0
BBX 16 16 0 -2
BITMAP
2000
11fe
7c22
00a2
7c42
00a2
7d14
0008
7c00
4552
4551
4544
7c42
443e
0000
0000
ENDCHAR
STARTCHAR ch-143
ENCODING 143
SWIDTH 1000 0
DWIDTH 16 0
BBX 16 16 0 -2
BITMAP
1020
1010
7cfe
0082
38fe
0082
38fe
0080
7c89
448a
448c
44a4
7cc2
4581
0000
0000
ENDCHAR
STARTCHAR ch-145
ENCODING 145
SWIDTH 1000 0
DWIDTH 16 0
BBX 16 16 0 -2
BITMAP
2202
115f
7c84
0144
7e44
0044
7cdf
0144
7e44
4444
4444
4444
7d7f
4480
0000
0000
ENDCHAR
STARTCHAR ch-146
ENCODING 146
SWIDTH 1000 0
DWIDTH 16 0
BBX 16 16 0 -2
BITMAP
2010
1020
7c42
01ff
0000
3880
00fe
3910
0010
7dff
4410
4428
7c44
4583
0000
0000
ENDCHAR
STARTCHAR ch-147
ENCODING 147
SWIDTH 1000 0
DWIDTH 16 0
BBX 16 16 0 -2
BITMAP
0806
7f78
0840
0e7f
3848
0948
1088
7fff
0ff8
0ff8
0000
0ff8
0808
0ff8
0000
0000
ENDCHAR
STARTCHAR ch-149
ENCODING 149
SWIDTH 1000 0
DWIDTH 16 0
BBX 16 16 0 -2
BITMAP
2007
103c
7c04
01c4
7c44
0087
7d94
0054
7c54
4554
449f
4540
7e20
441f
0000
0000
ENDCHAR
STARTCHAR ch-150
ENCODING 150
SWIDTH 1000 0
DWIDTH 16 0
BBX 16 16 0 -2
BITMAP
1010
11ff
7c10
01ff
3901
017d
3804
0008
7dff
4408
4408
4408
7c28
4410
0000
0000
ENDCHAR
STARTCHAR ch-152
ENCODING 152
SWIDTH 1000 0
DWIDTH 16 0
BBX 16 16 0 -2
BITMAP
207c
1010
7c10
01ff
7c54
0092
7d11
00fe
7c44
444f
4441
4481
7d05
4402
0000
0000
ENDCHAR
STARTCHAR ch-153
ENCODING 153
SWIDTH 1000 0
DWIDTH 16 0
BBX 16 16 0 -2
BITMAP
11ff
1000
7c49
0092
3924
0092
3849
0000
7cfe
4410
4410
4410
7c10
45ff
0000
0000
ENDCHAR
STARTCHAR ch-154
ENCODING 154
SWIDTH 1000 0
DWIDTH 16 0
BBX 16 16 0 -2
BITMAP
2008
1089
0849
7e2a
0000
3c7f
0041
3c7f
0041
7e7f
4241
4241
7e45
4282
0000
0000
ENDCHAR
STARTCHAR ch-158
ENCODING 158
SWIDTH 1000 0
DWIDTH 16 0
BBX 16 16 0 -2
BITMAP
2000
10fe
7c10
0010
7cfe
0012
7c22
01ff
7c00
447e
4442
4442
7c7e
4442
0000
0000
ENDCHAR
STARTCHAR ch-160
ENCODING 160
SWIDTH 1000 0
DWIDTH 16 0
BBX 16 16 0 -2
BITMAP
1008
080d
7e0a
01ff
3d08
0108
3de8
0128
3d29
2529
252a
2565
3d2b
2501
0000
0000
ENDCHAR
STARTCHAR ch-161
ENCODING 161
SWIDTH 1000 0
DWIDTH 16 0
BBX 16 16 0 -2
BITMAP
200a
1009
7c08
01ff
7c08
00a8
7ca8
01f9
7ca9
44aa
44ac
44ad
7d33
4401
0000
0000
ENDCHAR
STARTCHAR ch-163
ENCODING 163
SWIDTH 1000 0
DWIDTH 16 0
BBX 16 16 0 -2
BITMAP
2000
11ff
7c10
0010
7c92
0092
7c92
0155
7c38
4410
4410
4410
7dff
4400
0000
0000
ENDCHAR
STARTCHAR ch-164
ENCODING 164
SWIDTH 1000 0
DWIDTH 16 0
BBX 16 16 0 -2
BITMAP
20fe
1082
7e82
00fe
7d00
0100
7dff
0022
7c22
45ff
4448
4484
7d02
4601
0000
0000
ENDCHAR
STARTCHAR ch-165
ENCODING 165
SWIDTH 1000 0
DWIDTH 16 0
BBX 16 16 0 -2
BITMAP
2010
1090
7c90
00fe
7d10
0010
7dff
0000
7cfe
4482
4482
4482
7cfe
4482
0000
0000
ENDCHAR
STARTCHAR ch-166
ENCODING 166
SWIDTH 1000 0
DWIDTH 16 0
BBX 16 16 0 -2
BITMAP
20fe
1004
7c28
0010
7dff
0111
7d11
01ff
7d11
4511
45ff
4511
7d11
4513
0000
0000
ENDCHAR
STARTCHAR ch-167
ENCODING 167
SWIDTH 1000 0
DWIDTH 16 0
BBX 16 16 0 -2
BITMAP
2012
1010
7cfe
0010
7cfe
0092
7c92
00fe
7c92
44fe
4492
4492
7c92
4504
0000
0000
ENDCHAR
STARTCHAR ch-168
ENCODING 168
SWIDTH 1000 0
DWIDTH 16 0
BBX 16 16 0 -2
BITMAP
2080
1080
7cff
0300
7cfe
0092
7c8a
01ff
7c82
4492
448a
44ff
7c02
4404
0000
0000
ENDCHAR
STARTCHAR ch-170
ENCODING 170
SWIDTH 1000 0
DWIDTH 16 0
BBX 16 16 0 -2
BITMAP
2028
1044
7e82
0000
7efe
0082
7e82
00fe
7e28
4228
4228
4228
7e49
4287
0000
0000
ENDCHAR
STARTCHAR ch-171
ENCODING 171
SWIDTH 1000 0
DWIDTH 16 0
BBX 16 16 0 -2
BITMAP
10ff
1080
7c80
00be
3880
0080
38ff
00a0
7ca5
44a6
44a4
44ac
7d32
4461
0000
0000
ENDCHAR
STARTCHAR ch-176
ENCODING 176
SWIDTH 1000 0
DWIDTH 16 0
BBX 16 16 0 -2
BITMAP
0020
2048
1088
7dff
0288
7c88
00ff
7c88
0088
7cff
4488
4488
7cff
4480
0000
0000
ENDCHAR
STARTCHAR ch-178
ENCODING 178
SWIDTH 1000 0
DWIDTH 16 0
BBX 16 16 0 -2
BITMAP
20fe
1092
7cfe
0092
7cfe
0010
7dff
0010
7c54
4492
4511
4410
7c10
4410
0000
0000
ENDCHAR
STARTCHAR ch-182
ENCODING 182
SWIDTH 1000 0
DWIDTH 16 0
BBX 16 16 0 -2
BITMAP
2020
1010
7dff
0044
7c44
00aa
7d11
0010
7dff
4410
4410
4410
7c10
4410
0000
0000
ENDCHAR
STARTCHAR ch-184
ENCODING 184
SWIDTH 1000 0
DWIDTH 16 0
BBX 16 16 0 -2
BITMAP
1000
13c4
7c44
007f
7fc0
0208
7e09
03d1
7c7e
4444
4448
4451
7c7f
4581
0000
0000
ENDCHAR
STARTCHAR ch-185
ENCODING 185
SWIDTH 1000 0
DWIDTH 16 0
BBX 16 16 0 -2
BITMAP
2048
1048
7dcf
0048
7c48
01cf
7c48
0048
7dcf
4448
4448
4488
7d08
4408
0000
0000
ENDCHAR
STARTCHAR ch-186
ENCODING 186
SWIDTH 1000 0
DWIDTH 16 0
BBX 16 16 0 -2
BITMAP
1010
1010
7dff
0010
7c92
0092
7d55
0010
7c38
4454
4492
4511
7c10
4410
0000
0000
ENDCHAR
STARTCHAR ch-187
ENCODING 187
SWIDTH 1000 0
DWIDTH 16 0
BBX 16 16 0 -2
BITMAP
0810
0812
7f14
01f8
3e54
0092
3f11
0030
3e00
22fe
2282
22fe
3e82
22fe
0000
0000
ENDCHAR
STARTCHAR ch-188
ENCODING 188
SWIDTH 1000 0
DWIDTH 16 0
BBX 16 16 0 -2
BITMAP
2010
1010
7dff
0101
7c7c
0044
7c44
007c
7c44
4444
447c
4444
7c44
45ff
0000
0000
ENDCHAR
STARTCHAR ch-189
ENCODING 189
SWIDTH 1000 0
DWIDTH 16 0
BBX 16 16 0 -2
BITMAP
1040
1046
7c82
0182
7cee
0082
7c82
00fe
7c48
4448
4448
4449
7c89
450f
0000
0000
ENDCHAR
STARTCHAR ch-190
ENCODING 190
SWIDTH 1000 0
DWIDTH 16 0
BBX 16 16 0 -2
BITMAP
7f7f
4141
7f7f
4141
7f7f
4081
4ff9
47f1
4001
47f1
4001
47f1
4411
47f3
0000
0000
ENDCHAR
STARTCHAR ch-191
ENCODING 191
SWIDTH 1000 0
DWIDTH 16 0
BBX 16 16 0 -2
BITMAP
21ff
1111
7d11
017d
7d11
017d
7d01
017d
7d45
4545
457d
4501
7d05
4602
0000
0000
ENDCHAR
STARTCHAR ch-192
ENCODING 192
SWIDTH 1000 0
DWIDTH 16 0
BBX 16 16 0 -2
BITMAP
1040
10fe
7d92
00fe
7c92
00fe
7c20
0048
7c88
45ff
4408
4408
7c08
4408
0000
0000
ENDCHAR
STARTCHAR ch-194
ENCODING 194
SWIDTH 1000 0
DWIDTH 16 0
BBX 16 16 0 -2
BITMAP
2020
107e
7d82
0002
7c04
0048
7c80
0107
7d01
45ef
4501
4501
7dff
4501
0000
0000
ENDCHAR
STARTCHAR ch-195
ENCODING 195
SWIDTH 1000 0
DWIDTH 16 0
BBX 16 16 0 -2
BITMAP
1084
1084
7c84
0084
7fff
0084
7c84
01ce
7eb5
4484
4484
4484
7c84
4484
0000
0000
ENDCHAR
STARTCHAR ch-196
ENCODING 196
SWIDTH 1000 0
DWIDTH 16 0
BBX 16 16 0 -2
BITMAP
2020
1010
7dff
0000
7c7c
0044
7c7c
0000
7cfc
4410
44fe
4408
7c08
4430
0000
0000
ENDCHAR
STARTCHAR ch-197
ENCODING 197
SWIDTH 1000 0
DWIDTH 16 0
BBX 16 16 0 -2
BITMAP
0808
3ffe
0ff8
0ff8
0808
7fff
0888
17f4
2002
47f1
07f0
0ff8
0808
0ff8
0000
0000
ENDCHAR
STARTCHAR ch-198
ENCODING 198
SWIDTH 1000 0
DWIDTH 16 0
BBX 16 16 0 -2
BITMAP
1044
1044
7dff
0044
7c44
007c
7c44
007c
7c44
4444
45ff
4444
7c82
4501
0000
0000
ENDCHAR
STARTCHAR ch-199
ENCODING 199
SWIDTH 1000 0
DWIDTH 16 0
BBX 16 16 0 -2
BITMAP
2010
1111
7c92
0010
7c28
0044
7c92
0010
7d11
4492
4428
4444
7c82
4501
0000
0000
ENDCHAR
STARTCHAR ch-200
ENCODING 200
SWIDTH 1000 0
DWIDTH 16 0
BBX 16 16 0 -2
BITMAP
1004
0878
7e10
01ff
3c10
0054
3dff
0054
3c54
2410
24fe
2410
3c10
25ff
0000
0000
ENDCHAR
STARTCHAR ch-201
ENCODING 201
SWIDTH 1000 0
DWIDTH 16 0
BBX 16 16 0 -2
BITMAP
1001
11fe
7c10
01ff
7c54
0092
7c44
01ff
7c44
4444
4428
4410
7c28
45c7
0000
0000
ENDCHAR
STARTCHAR ch-203
ENCODING 203
SWIDTH 1000 0
DWIDTH 16 0
BBX 16 16 0 -2
BITMAP
2010
11ff
7c10
00fe
7c10
01ff
7cfe
0082
7cfe
4482
44fe
4482
7c8a
4504
0000
0000
ENDCHAR
STARTCHAR ch-205
ENCODING 205
SWIDTH 1000 0
DWIDTH 16 0
BBX 16 16 0 -2
BITMAP
20fe
1111
7c92
0054
7cfe
0012
7dff
0012
7cfe
4410
4410
4410
7c50
4420
0000
0000
ENDCHAR
STARTCHAR ch-207
ENCODING 207
SWIDTH 1000 0
DWIDTH 16 0
BBX 16 16 0 -2
BITMAP
1000
17e0
7e40
025f
3bd1
0251
3a51
03d1
3a51
2a4a
2fc4
284a
2851
3840
0000
0000
ENDCHAR
STARTCHAR ch-209
ENCODING 209
SWIDTH 1000 0
DWIDTH 16 0
BBX 16 16 0 -2
BITMAP
09ff
0810
7f20
0070
3e89
011a
3eac
0048
3ebc
222a
2249
2288
3e08
2230
0000
0000
ENDCHAR
STARTCHAR ch-210
ENCODING 210
SWIDTH 1000 0
DWIDTH 16 0
BBX 16 16 0 -2
BITMAP
2020
1010
7dff
0000
7cfe
0082
7c82
00fe
7c10
4410
4492
7d11
4450
0020
0000
0000
ENDCHAR
STARTCHAR ch-211
ENCODING 211
SWIDTH 1000 0
DWIDTH 16 0
BBX 16 16 0 -2
BITMAP
0812
08ff
7f14
0008
3e15
0023
3e00
0011
3e7f
2210
2214
2209
3e75
2203
0000
0000
ENDCHAR
STARTCHAR ch-212
ENCODING 212
SWIDTH 1000 0
DWIDTH 16 0
BBX 16 16 0 -2
BITMAP
1080
1080
7cef
0089
3889
03e9
3889
0089
39c9
2aa6
2886
2889
3889
2980
0000
0000
ENDCHAR
STARTCHAR ch-213
ENCODING 213
SWIDTH 1000 0
DWIDTH 16 0
BBX 16 16 0 -2
BITMAP
1010
101e
7c10
01ff
7d11
017d
7d10
011e
7d00
4524
4524
4625
7c45
4487
0000
0000
ENDCHAR
STARTCHAR ch-214
ENCODING 214
SWIDTH 1000 0
DWIDTH 16 0
BBX 16 16 0 -2
BITMAP
2030
1048
7c84
0102
7efd
0000
7dfe
014a
7d4a
45fe
454a
454a
7d4a
4504
0000
0000
ENDCHAR
STARTCHAR ch-215
ENCODING 215
SWIDTH 1000 0
DWIDTH 16 0
BBX 16 16 0 -2
BITMAP
1010
1028
7c44
0082
7d39
0000
7cfe
0004
7c08
4420
4552
4541
7c42
447e
0000
0000
ENDCHAR
STARTCHAR ch-216
ENCODING 216
SWIDTH 1000 0
DWIDTH 16 0
BBX 16 16 0 -2
BITMAP
1010
10fe
7c10
00fe
7c10
01ff
7c20
0041
7cca
454c
4444
4452
7c61
44c0
0000
0000
ENDCHAR
STARTCHAR ch-217
ENCODING 217
SWIDTH 1000 0
DWIDTH 16 0
BBX 16 16 0 -2
BITMAP
11fe
1084
7c84
00ff
7c84
00a4
7cc3
0181
7c00
44fe
4482
44fe
7c82
44fe
0000
0000
ENDCHAR
STARTCHAR ch-219
ENCODING 219
SWIDTH 1000 0
DWIDTH 16 0
BBX 16 16 0 -2
BITMAP
2050
1197
7d11
0111
7dd7
0111
7d11
01ff
7c10
4410
4428
4444
7c82
4501
0000
0000
ENDCHAR
STARTCHAR ch-220
ENCODING 220
SWIDTH 1000 0
DWIDTH 16 0
BBX 16 16 0 -2
BITMAP
38a4
01ff
7ca4
00a4
7cbc
0080
7cff
0010
7dff
4454
4454
7c92
4511
0010
0000
0000
ENDCHAR
STARTCHAR ch-221
ENCODING 221
SWIDTH 1000 0
DWIDTH 16 0
BBX 16 16 0 -2
BITMAP
11ff
0891
7edc
00b0
3d9f
0000
3cfe
0082
3cfe
2482
24fe
2482
3c82
2506
0000
0000
ENDCHAR
STARTCHAR ch-222
ENCODING 222
SWIDTH 1000 0
DWIDTH 16 0
BBX 16 16 0 -2
BITMAP
10ff
0880
7efe
0082
3cfe
0080
3cff
00d5
3cd5
24ff
2555
2555
3e55
2443
0000
0000
ENDCHAR
STARTCHAR ch-223
ENCODING 223
SWIDTH 1000 0
DWIDTH 16 0
BBX 16 16 0 -2
BITMAP
107c
0844
7e7c
0044
3c7c
0000
3dff
0010
3c50
245e
2450
2450
3cb0
251f
0000
0000
ENDCHAR
STARTCHAR ch-224
ENCODING 224
SWIDTH 1000 0
DWIDTH 16 0
BBX 16 16 0 -2
BITMAP
1010
0808
7eff
0081
3c7e
0000
3c7e
0042
3c7e
2442
247e
2400
3c00
25ff
0000
0000
ENDCHAR
STARTCHAR ch-225
ENCODING 225
SWIDTH 1000 0
DWIDTH 16 0
BBX 16 16 0 -2
BITMAP
1048
0884
7f02
02fd
3c20
007c
3c04
0004
3c38
2400
24fe
24aa
3caa
25ff
0000
0000
ENDCHAR
STARTCHAR ch-226
ENCODING 226
SWIDTH 1000 0
DWIDTH 16 0
BBX 16 16 0 -2
BITMAP
11ff
0911
7f7d
0010
3cfe
0092
3cfe
0092
3cfe
2410
25ff
2410
3c10
2410
0000
0000
ENDCHAR
STARTCHAR ch-228
ENCODING 228
SWIDTH 1000 0
DWIDTH 16 0
BBX 16 16 0 -2
BITMAP
11ef
0929
7d29
01ef
3c00
007c
3c00
01ff
3c40
247e
2402
2402
3c02
243c
0000
0000
ENDCHAR
STARTCHAR ch-230
ENCODING 230
SWIDTH 1000 0
DWIDTH 16 0
BBX 16 16 0 -2
BITMAP
387c
0000
7dff
0044
7dff
0111
7d12
00fe
7c92
4492
4492
4496
7c10
4410
0000
0000
ENDCHAR
STARTCHAR ch-231
ENCODING 231
SWIDTH 1000 0
DWIDTH 16 0
BBX 16 16 0 -2
BITMAP
2108
1108
7def
0108
7d08
00e7
7c40
0080
7cfe
4482
44fe
4482
7cfe
4482
0000
0000
ENDCHAR
STARTCHAR ch-232
ENCODING 232
SWIDTH 1000 0
DWIDTH 16 0
BBX 16 16 0 -2
BITMAP
1000
08fe
7e00
007c
3c44
007c
3c00
01ff
3d11
2511
25ff
2511
3d11
25ff
0000
0000
ENDCHAR
STARTCHAR ch-235
ENCODING 235
SWIDTH 1000 0
DWIDTH 16 0
BBX 16 16 0 -2
BITMAP
3810
01ff
7c10
01ff
7d11
0155
7d39
01ff
7c10
4454
4492
7d11
4410
0010
0000
0000
ENDCHAR
STARTCHAR ch-237
ENCODING 237
SWIDTH 1000 0
DWIDTH 16 0
BBX 16 16 0 -2
BITMAP
0030
3848
0084
7d02
02fd
7c00
01e2
7d2a
01ea
7d2a
45ea
452a
7d62
4424
0000
0000
ENDCHAR
STARTCHAR ch-238
ENCODING 238
SWIDTH 1000 0
DWIDTH 16 0
BBX 16 16 0 -2
BITMAP
2210
119f
7c21
0009
7c88
0114
7d22
0000
7cfe
4482
4482
4482
7cfe
4482
0000
0000
ENDCHAR
STARTCHAR ch-239
ENCODING 239
SWIDTH 1000 0
DWIDTH 16 0
BBX 16 16 0 -2
BITMAP
1010
0892
7e92
00fe
3c00
01ff
3c10
0020
3dff
2529
2529
2529
3d29
2503
0000
0000
ENDCHAR
STARTCHAR ch-240
ENCODING 240
SWIDTH 1000 0
DWIDTH 16 0
BBX 16 16 0 -2
BITMAP
10fe
0892
7e92
00fe
3c92
0092
3cfe
0000
3c20
2552
254a
2541
3d42
247e
0000
0000
ENDCHAR
STARTCHAR ch-241
ENCODING 241
SWIDTH 1000 0
DWIDTH 16 0
BBX 16 16 0 -2
BITMAP
3810
00fe
7c12
01ff
7c00
00fe
7c82
00fe
7c10
44fe
4490
7dff
4410
0010
0000
0000
ENDCHAR
STARTCHAR ch-242
ENCODING 242
SWIDTH 1000 0
DWIDTH 16 0
BBX 16 16 0 -2
BITMAP
11ff
1028
7c28
01ff
7d29
0129
7dff
0000
7c10
4410
44fe
4410
7c10
45ff
0000
0000
ENDCHAR
STARTCHAR ch-243
ENCODING 243
SWIDTH 1000 0
DWIDTH 16 0
BBX 16 16 0 -2
BITMAP
0010
3810
01ff
7c44
0044
7c44
01ff
7c00
00fe
7c82
44fe
4482
7cfe
4482
0000
0000
ENDCHAR
STARTCHAR ch-244
ENCODING 244
SWIDTH 1000 0
DWIDTH 16 0
BBX 16 16 0 -2
BITMAP
1006
0805
7dff
0104
3d74
0104
3d74
0154
3d54
2555
2576
2505
3d0b
2611
0000
0000
ENDCHAR
STARTCHAR ch-245
ENCODING 245
SWIDTH 1000 0
DWIDTH 16 0
BBX 16 16 0 -2
BITMAP
1010
0810
7dff
0010
3c10
01ff
3d45
0129
3d7d
2511
257d
2511
3d13
2511
0000
0000
ENDCHAR
STARTCHAR ch-246
ENCODING 246
SWIDTH 1000 0
DWIDTH 16 0
BBX 16 16 0 -2
BITMAP
0044
3844
01ff
7c44
007c
7c44
007c
7c44
01ff
7ca8
44a8
44c6
7c80
44fe
0000
0000
ENDCHAR
STARTCHAR ch-247
ENCODING 247
SWIDTH 1000 0
DWIDTH 16 0
BBX 16 16 0 -2
BITMAP
23fe
1202
7afa
0222
7a22
02fa
7aaa
02aa
7afa
4a22
4a2a
4afb
7c03
4801
0000
0000
ENDCHAR
STARTCHAR ch-248
ENCODING 248
SWIDTH 1000 0
DWIDTH 16 0
BBX 16 16 0 -2
BITMAP
2010
1011
7cfe
0014
7c18
01ff
7c50
0088
7d7e
4442
447e
4442
7c7e
4442
0000
0000
ENDCHAR
STARTCHAR ch-250
ENCODING 250
SWIDTH 1000 0
DWIDTH 16 0
BBX 16 16 0 -2
BITMAP
3810
01ff
7c44
0038
7cc6
00ff
7c82
008c
7cb1
4486
4499
7c82
450c
0070
0000
0000
ENDCHAR
STARTCHAR ch-251
ENCODING 251
SWIDTH 1000 0
DWIDTH 16 0
BBX 16 16 0 -2
BITMAP
1080
09fe
7e82
00fe
3c82
00fe
3c00
00fe
3c10
2410
24fe
2410
3c10
25ff
0000
0000
ENDCHAR
STARTCHAR ch-252
ENCODING 252
SWIDTH 1000 0
DWIDTH 16 0
BBX 16 16 0 -2
BITMAP
21ff
1122
7c94
00fe
7c10
01ff
7c20
007e
7ca2
4514
4408
4414
7c22
44c1
0000
0000
ENDCHAR
STARTCHAR ch-254
ENCODING 254
SWIDTH 1000 0
DWIDTH 16 0
BBX 16 16 0 -2
BITMAP
2044
11ff
7c44
0010
7c10
01ff
7c40
0080
7d7f
4441
4441
4441
7c7f
4441
0000
0000
ENDCHAR
STARTCHAR ch-255
ENCODING 255
SWIDTH 1000 0
DWIDTH 16 0
BBX 16 16 0 -2
BITMAP
107c
0844
7e7c
0000
3dff
0044
3c7c
0044
3c7c
2444
25ff
2404
3c04
2404
0000
0000
ENDCHAR
STARTCHAR ch-256
ENCODING 256
SWIDTH 1000 0
DWIDTH 16 0
BBX 16 16 0 -2
BITMAP
3844
01ff
7c44
007c
7c44
007c
7c10
01ff
7c54
4454
4492
7d11
4410
0010
0000
0000
ENDCHAR
STARTCHAR ch-257
ENCODING 257
SWIDTH 1000 0
DWIDTH 16 0
BBX 16 16 0 -2
BITMAP
2002
10ff
7e82
00fe
7c82
00fe
7c40
00ff
7d11
4691
44a9
4481
7cfd
4402
0000
0000
ENDCHAR
STARTCHAR ch-258
ENCODING 258
SWIDTH 1000 0
DWIDTH 16 0
BBX 16 16 0 -2
BITMAP
10fe
1092
7cfe
0092
7cfe
0000
7cfe
0082
7cfe
4482
44fe
4482
7c8a
4484
0000
0000
ENDCHAR
STARTCHAR ch-260
ENCODING 260
SWIDTH 1000 0
DWIDTH 16 0
BBX 16 16 0 -2
BITMAP
7924
49fc
4820
4bfe
7850
48a8
49fc
4a02
7cf9
48f8
4800
49fc
4904
59fc
0000
0000
ENDCHAR
STARTCHAR ch-261
ENCODING 261
SWIDTH 1000 0
DWIDTH 16 0
BBX 16 16 0 -2
BITMAP
1080
08ff
7e81
0155
3c7d
0011
3c26
0080
3cff
2481
2555
247d
3c11
2466
0000
0000
ENDCHAR
STARTCHAR ch-262
ENCODING 262
SWIDTH 1000 0
DWIDTH 16 0
BBX 16 16 0 -2
BITMAP
1001
08fe
0080
7eff
0081
3cff
0080
3cf7
0091
3cd5
24b3
24d5
3d11
2666
0000
0000
ENDCHAR
STARTCHAR ch-263
ENCODING 263
SWIDTH 1000 0
DWIDTH 16 0
BBX 16 16 0 -2
BITMAP
0080
3ffe
2222
2ffa
0ff8
0220
1ffc
0490
0ff8
13e4
03e0
07f0
0410
07f0
0000
0000
ENDCHAR
STARTCHAR ch-264
ENCODING 264
SWIDTH 1000 0
DWIDTH 16 0
BBX 16 16 0 -2
BITMAP
07f0
05d0
07f0
0220
1ffc
0220
3ffe
0490
0ff8
33e6
03e0
07f0
0410
07f0
0000
0000
ENDCHAR
STARTCHAR ch-266
ENCODING 266
SWIDTH 1000 0
DWIDTH 16 0
BBX 16 16 0 -2
BITMAP
2044
11ff
7c44
0010
7dff
0080
7cfe
0000
7c54
4454
4454
4494
7d14
4607
0000
0000
ENDCHAR
STARTCHAR ch-267
ENCODING 267
SWIDTH 1000 0
DWIDTH 16 0
BBX 16 16 0 -2
BITMAP
1042
0842
7eef
012a
3caa
006f
3c42
0082
3d12
25ff
2454
2492
3d11
2410
0000
0000
ENDCHAR
STARTCHAR ch-269
ENCODING 269
SWIDTH 1000 0
DWIDTH 16 0
BBX 16 16 0 -2
BITMAP
2a2a
0808
1414
2222
7fff
4081
4ff9
0000
07f0
07f0
0000
0ff8
0808
0ff8
0000
0000
ENDCHAR
STARTCHAR ch-270
ENCODING 270
SWIDTH 1000 0
DWIDTH 16 0
BBX 16 16 0 -2
BITMAP
0008
3808
0149
7caa
0008
7dbf
0088
7d1c
00aa
7cc9
4488
4488
7d40
443f
0000
0000
ENDCHAR
STARTCHAR ch-271
ENCODING 271
SWIDTH 1000 0
DWIDTH 16 0
BBX 16 16 0 -2
BITMAP
1050
0857
7f91
0111
3dd7
0111
3dd7
0010
3cfe
2404
2468
2410
3c28
24c7
0000
0000
ENDCHAR
STARTCHAR ch-272
ENCODING 272
SWIDTH 1000 0
DWIDTH 16 0
BBX 16 16 0 -2
BITMAP
1020
1054
7c4a
0145
7d48
0154
7c7c
0040
7c80
44fe
44aa
44aa
7caa
45ff
0000
0000
ENDCHAR
STARTCHAR ch-273
ENCODING 273
SWIDTH 1000 0
DWIDTH 16 0
BBX 16 16 0 -2
BITMAP
1001
09fe
7e92
0121
3c48
00f0
3c24
00fe
3c10
2410
25ff
2410
3c28
24c6
0000
0000
ENDCHAR
STARTCHAR ch-274
ENCODING 274
SWIDTH 1000 0
DWIDTH 16 0
BBX 16 16 0 -2
BITMAP
1010
0828
7e44
0092
3d7d
0044
3c7c
0044
3c7c
2480
257e
2642
3c42
247e
0000
0000
ENDCHAR
STARTCHAR ch-275
ENCODING 275
SWIDTH 1000 0
DWIDTH 16 0
BBX 16 16 0 -2
BITMAP
1010
11ff
7c10
00fe
7c82
00fe
7c82
00fe
7c82
44fe
4482
45ff
7c82
4501
0000
0000
ENDCHAR
STARTCHAR ch-276
ENCODING 276
SWIDTH 1000 0
DWIDTH 16 0
BBX 16 16 0 -2
BITMAP
1010
081c
7e10
01ff
3d11
017e
3d10
011e
3d00
257e
2540
25ff
3d40
267e
0000
0000
ENDCHAR
STARTCHAR ch-277
ENCODING 277
SWIDTH 1000 0
DWIDTH 16 0
BBX 16 16 0 -2
BITMAP
1001
09fe
7e88
008e
3cbf
00a9
3cbe
00a8
3cae
24a0
24bc
24b4
3d55
2623
0000
0000
ENDCHAR
STARTCHAR ch-278
ENCODING 278
SWIDTH 1000 0
DWIDTH 16 0
BBX 16 16 0 -2
BITMAP
10fe
0892
7efe
0092
3cfe
0044
3ca2
017f
3c84
2524
2428
2410
3c28
24c6
0000
0000
ENDCHAR
STARTCHAR ch-279
ENCODING 279
SWIDTH 1000 0
DWIDTH 16 0
BBX 16 16 0 -2
BITMAP
0020
3810
01ff
7c44
0044
7dff
0111
7c10
01ff
7c40
447e
4442
4482
7c1c
0000
0000
ENDCHAR
STARTCHAR ch-280
ENCODING 280
SWIDTH 1000 0
DWIDTH 16 0
BBX 16 16 0 -2
BITMAP
10ff
0881
7eff
0088
3c88
00ff
3ca2
0094
3cff
2488
2488
257f
3e08
2408
0000
0000
ENDCHAR
STARTCHAR ch-281
ENCODING 281
SWIDTH 1000 0
DWIDTH 16 0
BBX 16 16 0 -2
BITMAP
1044
1028
7dff
0028
7cfe
002a
7dff
002a
7cfe
4428
446c
44aa
7d29
4428
0000
0000
ENDCHAR
STARTCHAR ch-282
ENCODING 282
SWIDTH 1000 0
DWIDTH 16 0
BBX 16 16 0 -2
BITMAP
1000
0882
0044
7fff
0000
3c44
0082
3d01
00fe
3caa
24aa
24aa
24aa
3dff
0000
0000
ENDCHAR
STARTCHAR ch-283
ENCODING 283
SWIDTH 1000 0
DWIDTH 16 0
BBX 16 16 0 -2
BITMAP
3844
01ff
7c44
01ff
7c44
01ff
7c10
00fe
7c92
44fe
4492
45ff
7c82
4484
0000
0000
ENDCHAR
STARTCHAR ch-284
ENCODING 284
SWIDTH 1000 0
DWIDTH 16 0
BBX 16 16 0 -2
BITMAP
21ff
1110
0120
7d7e
0142
7d7e
0142
7d7e
0108
7d08
452a
4649
4489
7c18
0000
0000
ENDCHAR
STARTCHAR ch-285
ENCODING 285
SWIDTH 1000 0
DWIDTH 16 0
BBX 16 16 0 -2
BITMAP
2082
11e2
7b2f
01e2
7922
0122
79ea
0126
7922
4be2
48a2
4922
7a2a
4844
0000
0000
ENDCHAR
STARTCHAR ch-286
ENCODING 286
SWIDTH 1000 0
DWIDTH 16 0
BBX 16 16 0 -2
BITMAP
1010
08fe
7e00
007c
3c44
007c
3c00
01ff
3d01
257d
2545
257d
3d01
2503
0000
0000
ENDCHAR
STARTCHAR ch-288
ENCODING 288
SWIDTH 1000 0
DWIDTH 16 0
BBX 16 16 0 -2
BITMAP
2002
11fc
7c11
0111
7c92
0040
7cfe
0110
7c10
45ff
4410
4511
7d11
45ff
0000
0000
ENDCHAR
STARTCHAR ch-290
ENCODING 290
SWIDTH 1000 0
DWIDTH 16 0
BBX 16 16 0 -2
BITMAP
1048
087f
7e88
01fe
3c88
00fe
3c88
00ff
3c00
247e
2424
2418
3c18
24e7
0000
0000
ENDCHAR
STARTCHAR ch-291
ENCODING 291
SWIDTH 1000 0
DWIDTH 16 0
BBX 16 16 0 -2
BITMAP
11ff
1010
7dff
0195
7d53
0084
7cfe
0000
7dff
4440
447e
4402
7c02
441e
0000
0000
ENDCHAR
STARTCHAR ch-292
ENCODING 292
SWIDTH 1000 0
DWIDTH 16 0
BBX 16 16 0 -2
BITMAP
11ff
1028
7dff
0129
7dff
0000
7cfe
0000
7dff
4454
4492
4511
7c10
4410
0000
0000
ENDCHAR
STARTCHAR ch-293
ENCODING 293
SWIDTH 1000 0
DWIDTH 16 0
BBX 16 16 0 -2
BITMAP
1040
10fe
7d8a
00d2
7ca6
00da
009a
7ca6
00fe
7c20
4512
4541
4644
7c7c
0000
0000
ENDCHAR
STARTCHAR ch-294
ENCODING 294
SWIDTH 1000 0
DWIDTH 16 0
BBX 16 16 0 -2
BITMAP
083c
7f25
0847
7f3e
3f14
2908
3f77
2080
5ffc
07f0
07f0
0ff8
0808
0ff8
0000
0000
ENDCHAR
STARTCHAR ch-295
ENCODING 295
SWIDTH 1000 0
DWIDTH 16 0
BBX 16 16 0 -2
BITMAP
1010
09ff
7eaa
0092
3caa
0082
3cfe
0010
3dff
2511
2525
257d
3d01
2503
0000
0000
ENDCHAR
STARTCHAR ch-296
ENCODING 296
SWIDTH 1000 0
DWIDTH 16 0
BBX 16 16 0 -2
BITMAP
3844
01ff
7c44
00fe
7c82
00fe
7c82
00fe
7c10
45ff
4428
4444
7c82
4501
0000
0000
ENDCHAR
STARTCHAR ch-298
ENCODING 298
SWIDTH 1000 0
DWIDTH 16 0
BBX 16 16 0 -2
BITMAP
1010
11ff
7c82
0044
7dff
0129
7d49
0187
7d7d
4545
457d
4501
7d01
4507
0000
0000
ENDCHAR
STARTCHAR ch-299
ENCODING 299
SWIDTH 1000 0
DWIDTH 16 0
BBX 16 16 0 -2
BITMAP
3810
01ff
7c44
0028
7dff
0111
7d7d
0111
7d7d
4545
4545
457d
7d01
4502
0000
0000
ENDCHAR
STARTCHAR ch-300
ENCODING 300
SWIDTH 1000 0
DWIDTH 16 0
BBX 16 16 0 -2
BITMAP
3bff
01ad
7c21
01ad
7cc6
0010
7c6c
0193
7c28
44d0
4424
44c8
7c10
44e0
0000
0000
ENDCHAR
STARTCHAR ch-302
ENCODING 302
SWIDTH 1000 0
DWIDTH 16 0
BBX 16 16 0 -2
BITMAP
1010
11ff
0010
7dff
0010
7dff
00fe
7c82
00fe
7c82
44fe
4482
44fe
7d83
0000
0000
ENDCHAR
STARTCHAR ch-303
ENCODING 303
SWIDTH 1000 0
DWIDTH 16 0
BBX 16 16 0 -2
BITMAP
1010
101c
7c10
01ff
7d11
017e
7d10
011e
7d7e
4542
457e
467e
7c42
45ff
0000
0000
ENDCHAR
STARTCHAR ch-304
ENCODING 304
SWIDTH 1000 0
DWIDTH 16 0
BBX 16 16 0 -2
BITMAP
1104
089f
7e84
001f
3dd5
005f
3c95
011f
3c84
245f
2444
2444
3ca0
251f
0000
0000
ENDCHAR
STARTCHAR ch-305
ENCODING 305
SWIDTH 1000 0
DWIDTH 16 0
BBX 16 16 0 -2
BITMAP
1010
10fe
7c92
01ff
7c92
00fe
7dff
0111
7dff
4454
45ff
4428
7c10
45ef
0000
0000
ENDCHAR
STARTCHAR ch-307
ENCODING 307
SWIDTH 1000 0
DWIDTH 16 0
BBX 16 16 0 -2
BITMAP
1000
09ff
7f00
013c
3d24
013c
3d00
0177
3d55
2555
2577
2500
3d00
25ff
0000
0000
ENDCHAR
STARTCHAR ch-309
ENCODING 309
SWIDTH 1000 0
DWIDTH 16 0
BBX 16 16 0 -2
BITMAP
11ef
0821
7ea5
016b
3ca5
0021
3cc6
0000
3c20
24fe
2442
247e
3c42
247e
0000
0000
ENDCHAR
STARTCHAR ch-310
ENCODING 310
SWIDTH 1000 0
DWIDTH 16 0
BBX 16 16 0 -2
BITMAP
2010
1010
01ff
7d00
0144
7d44
01ff
7d44
0144
7d7c
4500
45a9
46a9
7ca9
0000
0000
ENDCHAR
STARTCHAR ch-311
ENCODING 311
SWIDTH 1000 0
DWIDTH 16 0
BBX 16 16 0 -2
BITMAP
0410
3f9f
3fa2
7fd2
0f0c
710c
0e33
0080
3ffe
0ff8
0ff8
0ff8
0808
0ff8
0000
0000
ENDCHAR
STARTCHAR ch-313
ENCODING 313
SWIDTH 1000 0
DWIDTH 16 0
BBX 16 16 0 -2
BITMAP
1044
11ff
7c44
007c
7c10
00fe
7c92
00fe
7c10
44fe
4410
45ff
7c10
45ff
0000
0000
ENDCHAR
STARTCHAR ch-314
ENCODING 314
SWIDTH 1000 0
DWIDTH 16 0
BBX 16 16 0 -2
BITMAP
0810
3e7c
0814
7f54
2235
7f25
7f47
0880
3ffe
0ff8
0ff8
1ffc
1004
1ffc
0000
0000
ENDCHAR
STARTCHAR ch-315
ENCODING 315
SWIDTH 1000 0
DWIDTH 16 0
BBX 16 16 0 -2
BITMAP
1028
13cf
7c91
00a1
7c8a
03e4
0088
7c94
01cf
7eb1
44a5
4482
4484
7cb8
0000
0000
ENDCHAR
STARTCHAR ch-316
ENCODING 316
SWIDTH 1000 0
DWIDTH 16 0
BBX 16 16 0 -2
BITMAP
1010
101c
7c10
00ff
7c91
00fe
7c90
009e
7c82
44fc
44aa
44ff
7d08
4418
0000
0000
ENDCHAR
STARTCHAR ch-317
ENCODING 317
SWIDTH 1000 0
DWIDTH 16 0
BBX 16 16 0 -2
BITMAP
3e44
02fe
3e10
20fe
3e92
02fe
0211
0cff
1ffc
07f0
07f0
0ff8
0808
0ff8
0000
0000
ENDCHAR
STARTCHAR ch-318
ENCODING 318
SWIDTH 1000 0
DWIDTH 16 0
BBX 16 16 0 -2
BITMAP
107c
0844
7e7c
0044
3c7c
0000
3dff
0129
3dff
2400
24fc
2448
3c30
24ce
0000
0000
ENDCHAR
STARTCHAR ch-320
ENCODING 320
SWIDTH 1000 0
DWIDTH 16 0
BBX 16 16 0 -2
BITMAP
11e0
0848
7e88
03ef
3d50
0142
3dca
014a
3d4a
25ca
254a
2544
3fca
2451
0000
0000
ENDCHAR
STARTCHAR ch-321
ENCODING 321
SWIDTH 1000 0
DWIDTH 16 0
BBX 16 16 0 -2
BITMAP
3844
01ff
7c44
01ff
7c54
0054
7dff
0054
7dff
4410
45ff
4410
7c10
4410
0000
0000
ENDCHAR
STARTCHAR ch-322
ENCODING 322
SWIDTH 1000 0
DWIDTH 16 0
BBX 16 16 0 -2
BITMAP
10ee
08aa
7eee
0000
3cfe
0092
3cfe
0092
3cfe
2410
25ff
2410
3c10
2410
0000
0000
ENDCHAR
STARTCHAR ch-325
ENCODING 325
SWIDTH 1000 0
DWIDTH 16 0
BBX 16 16 0 -2
BITMAP
13ff
10a5
7ea5
01ad
7d29
02d6
7c00
0042
7c42
454a
456b
454a
454a
7fef
0000
0000
ENDCHAR
STARTCHAR ch-326
ENCODING 326
SWIDTH 1000 0
DWIDTH 16 0
BBX 16 16 0 -2
BITMAP
2010
11ff
7c10
01ff
7cfe
0082
7cfe
0044
7dff
4444
45ff
4501
7dff
4501
0000
0000
ENDCHAR
STARTCHAR ch-327
ENCODING 327
SWIDTH 1000 0
DWIDTH 16 0
BBX 16 16 0 -2
BITMAP
1010
11ff
7c28
0054
3892
017d
3818
01ff
7c20
447f
44c1
457f
7c41
447f
0000
0000
ENDCHAR
STARTCHAR ch-328
ENCODING 328
SWIDTH 1000 0
DWIDTH 16 0
BBX 16 16 0 -2
BITMAP
1040
09f4
7e07
01ea
3d22
01e2
3c0a
01ea
3c2a
244a
25fa
2444
3c4a
24d1
0000
0000
ENDCHAR
STARTCHAR ch-329
ENCODING 329
SWIDTH 1000 0
DWIDTH 16 0
BBX 16 16 0 -2
BITMAP
21ef
1028
7dab
0044
7c82
017d
7c00
00fe
7c82
44fe
4482
4444
7c28
45ff
0000
0000
ENDCHAR
STARTCHAR ch-330
ENCODING 330
SWIDTH 1000 0
DWIDTH 16 0
BBX 16 16 0 -2
BITMAP
1010
08fe
7e10
01ff
3c44
00ee
3c44
01ff
3c00
25ff
2428
2448
3c89
250f
0000
0000
ENDCHAR
STARTCHAR ch-331
ENCODING 331
SWIDTH 1000 0
DWIDTH 16 0
BBX 16 16 0 -2
BITMAP
11ef
0929
7fef
0129
3def
0139
3d29
0139
3d29
2539
2529
2529
3d49
2503
0000
0000
ENDCHAR
STARTCHAR ch-334
ENCODING 334
SWIDTH 1000 0
DWIDTH 16 0
BBX 16 16 0 -2
BITMAP
20fe
1004
7c38
01ff
7c52
0090
7dff
0129
7dc7
4539
4529
4539
7d05
4502
0000
0000
ENDCHAR
STARTCHAR ch-335
ENCODING 335
SWIDTH 1000 0
DWIDTH 16 0
BBX 16 16 0 -2
BITMAP
2042
1084
1129
7bde
0084
7929
03ef
7912
03ff
7910
4994
4948
4a15
7822
0000
0000
ENDCHAR
STARTCHAR ch-336
ENCODING 336
SWIDTH 1000 0
DWIDTH 16 0
BBX 16 16 0 -2
BITMAP
1044
09ff
7e28
00fe
3caa
00ce
3cba
0082
3cfe
2404
25ff
2484
3c44
241c
0000
0000
ENDCHAR
STARTCHAR ch-337
ENCODING 337
SWIDTH 1000 0
DWIDTH 16 0
BBX 16 16 0 -2
BITMAP
1002
08fc
7e10
01ff
3c44
00ba
3d29
0038
3c00
24fe
24ba
24aa
3cba
2482
0000
0000
ENDCHAR
STARTCHAR ch-338
ENCODING 338
SWIDTH 1000 0
DWIDTH 16 0
BBX 16 16 0 -2
BITMAP
1002
08fc
7e92
0054
3dff
0054
3c92
0111
3cfe
2492
24fe
2492
3cfe
2482
0000
0000
ENDCHAR
STARTCHAR ch-339
ENCODING 339
SWIDTH 1000 0
DWIDTH 16 0
BBX 16 16 0 -2
BITMAP
2010
11ff
0010
7cfe
0092
7cfe
0092
7cfe
0011
7dff
4552
4549
4544
7c7c
0000
0000
ENDCHAR
STARTCHAR ch-340
ENCODING 340
SWIDTH 1000 0
DWIDTH 16 0
BBX 16 16 0 -2
BITMAP
11ef
0929
7fce
0108
3d29
00e7
3c44
01ff
3c44
2444
25ff
2444
3c82
2501
0000
0000
ENDCHAR
STARTCHAR ch-341
ENCODING 341
SWIDTH 1000 0
DWIDTH 16 0
BBX 16 16 0 -2
BITMAP
1040
0840
7eff
01aa
3caa
01ff
3caa
00aa
3caa
25ff
2400
252a
3d29
2529
0000
0000
ENDCHAR
STARTCHAR ch-342
ENCODING 342
SWIDTH 1000 0
DWIDTH 16 0
BBX 16 16 0 -2
BITMAP
11ef
0842
7f4a
01ef
3c44
00aa
3d33
0000
3cfe
2482
24fe
2482
3cfe
2482
0000
0000
ENDCHAR
STARTCHAR ch-343
ENCODING 343
SWIDTH 1000 0
DWIDTH 16 0
BBX 16 16 0 -2
BITMAP
1084
09ef
7e52
0028
3c44
0082
3d7d
0000
3cfe
2482
2482
2482
3cfe
2482
0000
0000
ENDCHAR
STARTCHAR ch-344
ENCODING 344
SWIDTH 1000 0
DWIDTH 16 0
BBX 16 16 0 -2
BITMAP
3844
0044
7df6
00a5
7ca4
01ff
7c04
01e5
7d26
45e4
452d
4525
7de3
4521
0000
0000
ENDCHAR
STARTCHAR ch-345
ENCODING 345
SWIDTH 1000 0
DWIDTH 16 0
BBX 16 16 0 -2
BITMAP
2048
1088
7dff
0088
7cff
0088
7cff
0088
7cff
4480
4400
4495
7c95
4515
0000
0000
ENDCHAR
STARTCHAR ch-346
ENCODING 346
SWIDTH 1000 0
DWIDTH 16 0
BBX 16 16 0 -2
BITMAP
21ff
1028
7dff
0129
7dff
00fe
7c82
00fe
7c82
44fe
4410
45ff
7c10
4410
0000
0000
ENDCHAR
STARTCHAR ch-348
ENCODING 348
SWIDTH 1000 0
DWIDTH 16 0
BBX 16 16 0 -2
BITMAP
2082
1044
7dff
0129
7caa
006c
7dff
0000
7cfe
4482
44fe
4482
7cfe
4482
0000
0000
ENDCHAR
STARTCHAR ch-349
ENCODING 349
SWIDTH 1000 0
DWIDTH 16 0
BBX 16 16 0 -2
BITMAP
11ff
0929
7fef
0028
3def
0129
3def
0129
3d29
25ef
2420
2420
3c21
241f
0000
0000
ENDCHAR
STARTCHAR ch-351
ENCODING 351
SWIDTH 1000 0
DWIDTH 16 0
BBX 16 16 0 -2
BITMAP
387c
0044
7c7c
0000
7def
0129
7def
0010
7dff
4454
4492
7d11
4450
0020
0000
0000
ENDCHAR
STARTCHAR ch-352
ENCODING 352
SWIDTH 1000 0
DWIDTH 16 0
BBX 16 16 0 -2
BITMAP
1010
09ff
7efe
00ba
3caa
00ba
3cfe
007c
3c44
247c
2444
247c
3c44
25ff
0000
0000
ENDCHAR
STARTCHAR ch-355
ENCODING 355
SWIDTH 1000 0
DWIDTH 16 0
BBX 16 16 0 -2
BITMAP
1010
0828
7e44
0082
3d01
007c
3c00
00ee
3caa
24ee
2400
2444
3caa
2511
0000
0000
ENDCHAR
STARTCHAR ch-357
ENCODING 357
SWIDTH 1000 0
DWIDTH 16 0
BBX 16 16 0 -2
BITMAP
2010
7f10
3d1f
3f62
0812
7f8c
2233
4c80
3ffe
0ff8
0ff8
0ff8
0808
0ff8
0000
0000
ENDCHAR
STARTCHAR ch-358
ENCODING 358
SWIDTH 1000 0
DWIDTH 16 0
BBX 16 16 0 -2
BITMAP
2220
773f
2244
7fa8
3c90
24a8
3dc7
0080
3ffe
07f0
07f0
0ff8
0808
0ff8
0000
0000
ENDCHAR
STARTCHAR ch-359
ENCODING 359
SWIDTH 1000 0
DWIDTH 16 0
BBX 16 16 0 -2
BITMAP
1010
11ff
7d44
01ff
7d28
01fe
7d2a
01ff
7d2a
45fe
466c
44aa
7d29
4428
0000
0000
ENDCHAR
STARTCHAR ch-360
ENCODING 360
SWIDTH 1000 0
DWIDTH 16 0
BBX 16 16 0 -2
BITMAP
1028
11ff
7d29
01ff
7d29
01ff
01ff
7d00
01ff
7d00
45ff
454a
4544
7c6b
0000
0000
ENDCHAR
STARTCHAR ch-362
ENCODING 362
SWIDTH 1000 0
DWIDTH 16 0
BBX 16 16 0 -2
BITMAP
1044
11ff
7c44
00fe
7c82
00fe
0082
7cfe
0040
7cff
4591
44a9
44fd
7c02
0000
0000
ENDCHAR
STARTCHAR ch-363
ENCODING 363
SWIDTH 1000 0
DWIDTH 16 0
BBX 16 16 0 -2
BITMAP
107c
1088
7bff
0244
7a92
02ff
7a00
027c
7a00
4a7c
4a00
4cfe
7882
48fe
0000
0000
ENDCHAR
STARTCHAR ch-364
ENCODING 364
SWIDTH 1000 0
DWIDTH 16 0
BBX 16 16 0 -2
BITMAP
3f88
10ff
1fa2
107f
1f88
30ff
1f88
0080
3ffe
07f0
07f0
0ff8
0808
0ff8
0000
0000
ENDCHAR
STARTCHAR ch-365
ENCODING 365
SWIDTH 1000 0
DWIDTH 16 0
BBX 16 16 0 -2
BITMAP
1100
096e
7e2a
022a
3b6a
022b
3bf0
001f
3881
2889
2be9
2886
3886
2be9
0000
0000
ENDCHAR
STARTCHAR ch-367
ENCODING 367
SWIDTH 1000 0
DWIDTH 16 0
BBX 16 16 0 -2
BITMAP
11ff
1129
7dff
0010
7cfe
0010
7dff
0044
7cfe
4410
45ff
4410
7c10
4410
0000
0000
ENDCHAR
STARTCHAR ch-368
ENCODING 368
SWIDTH 1000 0
DWIDTH 16 0
BBX 16 16 0 -2
BITMAP
0044
3828
01ff
7c10
00fe
7c10
01ff
7cca
0049
7dff
446a
45cc
7c49
44d7
0000
0000
ENDCHAR
STARTCHAR ch-372
ENCODING 372
SWIDTH 1000 0
DWIDTH 16 0
BBX 16 16 0 -2
BITMAP
1008
127f
7d49
00ff
7c08
03ff
7cbe
0122
7cbe
44bf
44a1
473f
7ca0
447f
0000
0000
ENDCHAR
STARTCHAR ch-375
ENCODING 375
SWIDTH 1000 0
DWIDTH 16 0
BBX 16 16 0 -2
BITMAP
1044
11ff
7c44
00fe
7d88
00fe
7cfe
0088
7cfe
44fe
4444
4438
7c44
4583
0000
0000
ENDCHAR
STARTCHAR ch-376
ENCODING 376
SWIDTH 1000 0
DWIDTH 16 0
BBX 16 16 0 -2
BITMAP
1010
11ff
7c10
00fe
7dff
0001
7cff
0010
01ff
7dff
4402
45ff
452a
7de6
0000
0000
ENDCHAR
STARTCHAR ch-377
ENCODING 377
SWIDTH 1000 0
DWIDTH 16 0
BBX 16 16 0 -2
BITMAP
1010
11ff
7cfe
0082
7cfe
03ff
7e01
03ff
0040
7cfa
452c
4458
44ac
7d5a
0000
0000
ENDCHAR
STARTCHAR ch-378
ENCODING 378
SWIDTH 1000 0
DWIDTH 16 0
BBX 16 16 0 -2
BITMAP
1100
09ef
7f02
01ec
3c3f
0105
3de4
0297
3c94
27f4
2494
2494
3d5c
2627
0000
0000
ENDCHAR
STARTCHAR ch-379
ENCODING 379
SWIDTH 1000 0
DWIDTH 16 0
BBX 16 16 0 -2
BITMAP
3e3e
2222
3e3e
3e3e
2222
3e3e
41c1
7fff
0ff8
0000
0ff8
0ff8
0808
0ff8
0000
0000
ENDCHAR
STARTCHAR ch-381
ENCODING 381
SWIDTH 1000 0
DWIDTH 16 0
BBX 16 16 0 -2
BITMAP
091c
11c4
3d1c
1ddc
1144
7fff
0490
0ff8
1004
27f2
47f1
0ff8
0808
0ff8
0000
0000
ENDCHAR
STARTCHAR ch-382
ENCODING 382
SWIDTH 1000 0
DWIDTH 16 0
BBX 16 16 0 -2
BITMAP
1044
11ff
7c00
00f1
0095
7cf5
00f5
7c91
0133
0000
7def
4529
44a5
7d6b
0000
0000
ENDCHAR
STARTCHAR ch-383
ENCODING 383
SWIDTH 1000 0
DWIDTH 16 0
BBX 16 16 0 -2
BITMAP
1044
11ef
7c44
01ef
7def
0044
7cfe
0002
01ff
7c02
44fe
4552
4545
7c7c
0000
0000
ENDCHAR
STARTCHAR ch-384
ENCODING 384
SWIDTH 1000 0
DWIDTH 16 0
BBX 16 16 0 -2
BITMAP
1010
10fe
7c10
00fe
7dff
0129
7dff
00fe
7c82
44fe
44fe
4482
7cfe
4583
0000
0000
ENDCHAR
STARTCHAR ch-386
ENCODING 386
SWIDTH 1000 0
DWIDTH 16 0
BBX 16 16 0 -2
BITMAP
1040
10fc
7d08
01ff
7d29
01ff
7c82
00fe
7cfe
4482
44fe
447c
7c90
45ef
0000
0000
ENDCHAR
STARTCHAR ch-388
ENCODING 388
SWIDTH 1000 0
DWIDTH 16 0
BBX 16 16 0 -2
BITMAP
20fe
1092
00fe
7c92
00fe
7800
0000
7bff
02b5
7ab5
4bff
4ab5
4ab5
7bff
0000
0000
ENDCHAR
STARTCHAR ch-389
ENCODING 389
SWIDTH 1000 0
DWIDTH 16 0
BBX 16 16 0 -2
BITMAP
1010
09ff
7f05
00f8
3c54
01ff
3c92
0111
3cfe
2492
24fe
2492
3cfe
2482
0000
0000
ENDCHAR
STARTCHAR ch-390
ENCODING 390
SWIDTH 1000 0
DWIDTH 16 0
BBX 16 16 0 -2
BITMAP
0880
13ef
2ff0
53ef
33e2
57e2
17f2
1086
3ffe
0ff8
0ff8
1ffc
1004
1ffc
0000
0000
ENDCHAR
STARTCHAR ch-392
ENCODING 392
SWIDTH 1000 0
DWIDTH 16 0
BBX 16 16 0 -2
BITMAP
11ff
0912
7f6c
0124
3dff
0124
3d76
01ad
3d24
2500
2508
252e
3e28
24ff
0000
0000
ENDCHAR
STARTCHAR ch-394
ENCODING 394
SWIDTH 1000 0
DWIDTH 16 0
BBX 16 16 0 -2
BITMAP
1084
27e9
4812
73fc
2409
7fff
03e0
5635
57f5
0400
0ff8
1140
0080
3f7e
0000
0000
ENDCHAR
STARTCHAR ch-395
ENCODING 395
SWIDTH 1000 0
DWIDTH 16 0
BBX 16 16 0 -2
BITMAP
0420
3fbe
113e
7fc2
3fbe
3ca5
3ea9
20bf
7fff
0ff8
0ff8
0ff8
0808
0ff8
0000
0000
ENDCHAR
STARTCHAR ch-396
ENCODING 396
SWIDTH 1000 0
DWIDTH 16 0
BBX 16 16 0 -2
BITMAP
2044
1044
01ff
7e44
007c
3c00
00ba
3cab
01aa
3caa
25bb
2400
3d29
2529
0000
0000
ENDCHAR
STARTCHAR ch-398
ENCODING 398
SWIDTH 1000 0
DWIDTH 16 0
BBX 16 16 0 -2
BITMAP
0080
204a
2bfa
7c1f
29ea
280a
3def
280a
29ea
3d2f
292a
292a
3def
2128
0000
0000
ENDCHAR
STARTCHAR ch-402
ENCODING 402
SWIDTH 1000 0
DWIDTH 16 0
BBX 16 16 0 -2
BITMAP
10fc
1108
7dff
0101
7dff
0084
7cf7
00ff
7d08
45ff
4511
45ff
7c4a
458f
0000
0000
ENDCHAR
STARTCHAR ch-403
ENCODING 403
SWIDTH 1000 0
DWIDTH 16 0
BBX 16 16 0 -2
BITMAP
1010
11ff
7def
0129
7def
0044
7dff
0044
7dff
4444
45ff
458a
7c84
44cb
0000
0000
ENDCHAR
STARTCHAR ch-404
ENCODING 404
SWIDTH 1000 0
DWIDTH 16 0
BBX 16 16 0 -2
BITMAP
23bf
12aa
7ac1
033e
7b08
02be
7a80
02be
7aff
4b3e
4a00
4a0a
7a55
4a5f
0000
0000
ENDCHAR
STARTCHAR ch-405
ENCODING 405
SWIDTH 1000 0
DWIDTH 16 0
BBX 16 16 0 -2
BITMAP
11ef
1129
7def
0129
7def
0111
7dff
0111
01ff
7dbb
45ff
4555
4593
7d11
0000
0000
ENDCHAR
STARTCHAR ch-406
ENCODING 406
SWIDTH 1000 0
DWIDTH 16 0
BBX 16 16 0 -2
BITMAP
1148
114a
12a9
7c18
03ff
7948
0368
7948
036a
794c
4b69
4955
7be3
4801
0000
0000
ENDCHAR
STARTCHAR ch-408
ENCODING 408
SWIDTH 1000 0
DWIDTH 16 0
BBX 16 16 0 -2
BITMAP
10fe
1044
7c7c
007c
7c44
01ff
7c04
01ff
00aa
7cee
44ee
44aa
45fe
7c22
0000
0000
ENDCHAR
STARTCHAR ch-409
ENCODING 409
SWIDTH 1000 0
DWIDTH 16 0
BBX 16 16 0 -2
BITMAP
1044
11ff
7c44
01ef
7d29
01ef
7c88
01ff
0088
7cff
4488
44ff
4488
7cff
0000
0000
ENDCHAR
STARTCHAR ch-410
ENCODING 410
SWIDTH 1000 0
DWIDTH 16 0
BBX 16 16 0 -2
BITMAP
114a
11ef
7c42
01ef
7d4a
0063
7cfe
0082
7cfe
4482
44fe
4482
7cfe
0101
0000
0000
ENDCHAR
STARTCHAR ch-412
ENCODING 412
SWIDTH 1000 0
DWIDTH 16 0
BBX 16 16 0 -2
BITMAP
1092
11ff
7d7d
0145
7c7c
01ff
7d55
0139
7dff
4410
44fe
4410
7dff
4529
0000
0000
ENDCHAR
STARTCHAR ch-414
ENCODING 414
SWIDTH 1000 0
DWIDTH 16 0
BBX 16 16 0 -2
BITMAP
2104
21e6
77e5
053f
77c4
05c4
77e4
05c4
0944
71c4
57e4
56a4
57ea
7531
0000
0000
ENDCHAR
STARTCHAR ch-415
ENCODING 415
SWIDTH 1000 0
DWIDTH 16 0
BBX 16 16 0 -2
BITMAP
2082
27f2
7087
03e0
77f7
0550
77f7
03e0
0220
73e7
53e5
5225
53e5
7417
0000
0000
ENDCHAR
ENDFONT
